<mxfile host="app.diagrams.net" modified="2023-05-09T15:37:28.697Z" agent="Mozilla/5.0 (Windows NT 10.0; Win64; x64) AppleWebKit/537.36 (KHTML, like Gecko) Chrome/112.0.0.0 Safari/537.36" version="21.2.9" etag="0SI1PQbGkm7L4bjNesIN" type="github">
  <diagram name="Page-1" id="SOupixYz_gMmX98JivXm">
    <mxGraphModel>
      <root>
        <mxCell id="0" />
        <mxCell id="1" parent="0" />
      </root>
    </mxGraphModel>
  </diagram>
</mxfile>
